<svg width="232" height="200" viewBox="0 0 232 200" fill="none" xmlns="http://www.w3.org/2000/svg">
<path fill-rule="evenodd" clip-rule="evenodd" d="M103.036 3.22908C106.94 1.17214 111.426 0.0837402 116.001 0.0837402C120.576 0.0837402 125.062 1.17214 128.965 3.22908C132.868 5.28602 136.038 8.23169 138.124 11.7417L138.161 11.804L229.291 168.927C231.193 172.186 232.106 175.821 231.929 179.467C231.752 183.117 230.496 186.667 228.278 189.78C226.061 192.893 222.959 195.466 219.263 197.254C215.57 199.043 211.405 199.987 207.168 199.999H24.8327C20.5955 199.987 16.4318 199.043 12.7372 197.254C9.04261 195.466 5.93967 192.893 3.7231 189.78C1.50653 186.667 0.249904 183.117 0.0725643 179.467C-0.104568 175.821 0.800937 172.197 2.70316 168.939L93.8773 11.7416C95.9632 8.23154 99.133 5.28602 103.036 3.22908ZM116 58.9286C122.864 58.9286 128.429 63.7256 128.429 69.6429V116.071C128.429 121.989 122.864 126.786 116 126.786C109.136 126.786 103.572 121.989 103.572 116.071V69.6429C103.572 63.7256 109.136 58.9286 116 58.9286ZM132.572 155.357C132.572 163.247 125.152 169.643 116 169.643C106.848 169.643 99.4288 163.247 99.4288 155.357C99.4288 147.467 106.848 141.071 116 141.071C125.152 141.071 132.572 147.467 132.572 155.357Z" fill="#D01111"/>
</svg>
