<svg width="55" height="54" viewBox="0 0 55 54" fill="none" xmlns="http://www.w3.org/2000/svg">
<path fill-rule="evenodd" clip-rule="evenodd" d="M2.47703 1.6946C3.74288 0.609564 5.45981 0 7.25 0H34.25C34.8467 0 35.4191 0.203188 35.841 0.564867L53.8412 15.9935C54.2628 16.3551 54.5 16.8456 54.5 17.3571V48.2143C54.5 49.7487 53.789 51.2205 52.5232 52.3056C51.2573 53.3906 49.5401 54 47.75 54H7.25C5.45976 54 3.74288 53.3906 2.47703 52.3056C1.21118 51.2205 0.5 49.7487 0.5 48.2143V5.78571C0.5 4.25127 1.21118 2.77963 2.47703 1.6946ZM23.3411 12.9873C23.6999 14.2923 23.8329 16.0291 23.8303 17.9032C26.9274 22.1447 31.998 27.43 36.2331 30.7477C38.1914 30.635 40.0929 30.6733 41.5882 31.0188C42.4702 31.2226 43.6824 31.6373 44.4992 32.5889C45.4667 33.7163 45.4123 35.012 44.9465 36.0435C44.4772 37.084 43.5281 37.9682 42.1016 38.2973C40.8684 38.5818 39.6866 38.3508 38.8245 38.081C37.4004 37.6353 35.8755 36.7695 34.3941 35.7498C29.844 36.2573 24.1897 37.5117 20.0493 38.9371C19.4612 40.343 18.7487 41.6548 17.8666 42.5956C17.3166 43.1823 16.4415 43.9062 15.1785 44.1708C13.7268 44.4752 12.4284 44.0463 11.4947 43.3751C10.57 42.7109 9.78971 41.676 9.90325 40.3453C10.0029 39.177 10.7618 38.3005 11.3829 37.7483C12.3839 36.8584 13.8611 36.0801 15.4529 35.4103C16.9452 30.8485 18.0091 24.208 18.1809 19.2085C17.1794 17.7251 16.3596 16.2741 15.933 15.0131C15.6961 14.3131 15.5045 13.4588 15.6372 12.6019C15.7854 11.6441 16.3854 10.5518 17.7763 9.96285C18.384 9.70554 19.1876 9.53158 20.0838 9.68359C20.973 9.83436 21.6238 10.2502 22.0534 10.6557C22.8165 11.3758 23.1561 12.3145 23.3411 12.9873ZM23.2627 25.5887C25.1411 27.678 27.2085 29.7623 29.2559 31.6133C26.7786 32.0519 24.2239 32.6232 21.8396 33.2743C22.4367 30.8367 22.9213 28.1783 23.2627 25.5887Z" fill="black"/>
</svg>
