<svg width="325" height="316" viewBox="0 0 325 316" fill="none" xmlns="http://www.w3.org/2000/svg">
<path d="M114.493 287.487C75.633 289.339 11.4206 293.776 11.2839 296.56C11.149 299.296 22.2002 294.819 96.8425 290.664C101.75 290.39 106.735 290.148 111.765 289.929C112.507 289.233 113.394 288.443 114.493 287.487Z" fill="black"/>
<path d="M199.571 286.062C200.068 286.628 200.583 287.223 201.139 287.885C201.254 288.023 201.35 288.146 201.463 288.282C259.664 288.341 307.298 290.116 308.409 289.628C314.65 286.886 253.432 286.007 199.571 286.064V286.062Z" fill="black"/>
<path d="M277.903 74.1412C277.582 74.1146 277.168 74.0748 276.703 74.0283C277.152 79.4648 277.518 85.7529 277.846 91.9613C277.47 113.369 280.617 208.228 273.597 209.186C254.539 211.789 186.427 214.476 177.935 214.909C139.886 216.85 67.8156 217.026 29.3922 213.943C17.5032 212.989 18.7475 213.639 18.4688 206.701C13.6071 85.7877 20.1391 63.4674 20.1728 61.7609C20.2119 59.7573 20.7142 55.6853 21.4952 53.773C21.8023 53.021 22.2727 52.4234 23.288 52.2956C25.9096 51.9669 23.2294 51.2929 44.7939 49.7143C92.9585 46.1834 167.761 42.1032 226.343 45.5294C225.171 40.8333 225.052 35.9213 225.977 31.1173C153.099 27.5035 31.4228 31.0243 11.9706 41.0308C8.28743 42.9249 7.48159 45.5742 6.34204 48.5124C-3.12578 72.946 0.644319 216.151 6.52841 240.219C7.85611 245.653 8.59806 248.584 11.9528 250.873C16.0087 253.642 27.7077 255.058 29.9247 255.143C31.4778 255.201 36.9271 256.291 43.4839 257.083C48.7663 257.721 57.4159 258.124 57.6608 258.154C74.0618 260.053 93.5513 260.133 124.152 260.523C125.059 260.534 124.967 260.433 124.648 264.401C123.437 279.407 124.511 279.653 122.567 280.574C109.525 291.704 111 290.282 104.858 297.738C103.083 299.895 100.829 303.029 100.978 305.52C101.061 306.908 101.214 311.403 101.826 312.582C104.189 317.126 146.899 315.475 152.95 315.092C166.034 314.262 196.64 314.129 208.066 311.699C209.147 311.468 209.793 310.891 210.155 309.936C210.817 308.196 211.394 302.896 210.478 301.261C208.715 298.109 206.257 294 201.134 287.885C188.47 272.77 191.185 283.771 189.426 271.661C187.598 259.067 187.717 259.724 188.342 259.736C187.941 259.748 251.276 256.989 276.403 251.33C280.656 250.372 284.694 249.388 287.028 245.243C295.85 229.574 296.958 118.875 293.69 72.3882C289.657 73.4091 288.894 73.4323 277.9 74.1412H277.903ZM190.692 288.768C191.205 290.112 191.553 290.147 192.112 290.102C193.621 289.983 192.366 287.126 190.988 280.803C197.117 285.81 203.788 295.117 207.835 300.526C209.315 302.504 205.371 302.25 180.738 303.689C180.397 303.709 115.705 306.515 105.742 305.263C101.37 304.714 101.184 305.456 111.798 292.894C114.848 289.284 121.863 283.3 123.309 282.422C123.984 282.013 123.341 283.089 122.977 290.423C122.928 291.439 123.874 292.285 124.159 291.6C126.421 286.171 127.331 266.333 127.04 266.333C127.04 260.485 126.817 260.529 127.578 260.528C154.093 260.466 129.348 261.437 173.728 260.279C184.797 259.99 180.983 260.201 184.797 259.922C185.317 259.884 185.149 260.196 185.351 262.151C186.515 273.403 189.529 285.708 190.694 288.766L190.692 288.768ZM285.404 243.096C283.406 247.882 280.069 248.536 265.215 251.426C255.994 253.221 198.866 256.947 198.823 256.951C193.092 257.424 148.252 258.529 148.25 258.469C68.4049 258.469 52.5151 255.164 36.0768 253.362C17.4748 251.321 12.109 251.426 9.94706 243.642C8.91934 239.94 7.23131 233.676 7.13724 229.853C7.08754 227.756 6.65089 226.964 7.32539 227.218C15.2632 230.196 130.494 231.026 183.093 229.312C210.384 228.422 203.932 228.002 226.957 227.102C275.148 225.218 283.049 222.424 289.133 222.414C289.284 228.005 287.232 238.712 285.401 243.098L285.404 243.096Z" fill="black"/>
<path d="M194.3 94.8832C193.537 87.4447 190.763 74.0768 180.775 67.1595C181.389 65.9527 180.865 64.4903 179.589 63.8761C175.072 61.7048 159.143 54.8921 143.942 58.3715C129.577 61.6583 120.034 69.7359 116.598 73.0559C115.529 74.09 115.616 75.7451 116.775 76.678C116.937 76.8075 117.107 76.9436 117.281 77.083C112.732 84.4003 111.887 93.6664 114.587 106.188C114.768 107.026 114.825 107.3 115.167 107.468C115.558 107.66 115.998 107.443 116.576 107.207C117.379 106.882 117.345 106.58 117.125 105.755C115.02 97.8164 115.071 85.72 119.308 78.665C120.602 79.6411 122.106 79.417 123.013 78.5305C125.957 75.6521 134.206 68.7349 147.154 66.6483C160.162 64.5533 171.639 68.778 175.968 70.6904C177.289 71.2714 178.831 70.775 179.484 69.5582L179.52 69.4918C186.829 75.1143 191.261 86.2977 191.355 94.2408C191.373 95.587 192.183 95.4758 193.894 95.3347C194.137 95.3148 194.32 95.1123 194.297 94.8815L194.3 94.8832ZM176.729 69.1914C172.248 67.211 160.367 62.8386 146.856 65.0148C133.387 67.1844 124.8 74.3888 121.733 77.3851C121.417 77.6939 120.893 77.7271 120.538 77.4582C119.734 76.8539 118.731 76.0588 117.934 75.418C117.546 75.106 117.517 74.5532 117.876 74.2079C126.616 65.7635 140.388 59.0538 152.955 59.0538C164.594 59.0538 175.258 63.6586 178.78 65.3501C179.211 65.5576 179.385 66.0556 179.167 66.459L177.904 68.8112C177.686 69.2163 177.173 69.3823 176.731 69.1881L176.729 69.1914Z" fill="black"/>
<path d="M70.8984 147.593C70.6339 148.822 69.663 148.639 69.3683 147.771C68.0353 143.847 68.6281 142.402 64.7853 139.727C64.3717 139.439 62.4192 138.05 62.1831 137.564C61.8867 136.954 62.6038 136.347 63.1381 136.579C68.408 138.882 72.0432 142.258 70.8984 147.593Z" fill="black"/>
<path d="M182.48 103.79C182.045 112.392 182.104 113.252 173.644 115.083C163.5 117.278 164.141 115.978 162.176 111.32C160.433 107.185 161.117 106.001 160.099 105.64C159.373 105.382 159.507 104.732 157.425 104.567C153.141 104.23 152.004 105.298 149.355 107.605C149.048 107.872 149.18 109.71 149.206 109.951C149.568 113.237 149.291 114.673 149.162 116.604C148.951 119.731 145.271 120.364 141.709 120.721C135.17 121.376 132.351 123.071 129.582 115.845C128.591 113.262 125.787 106.443 128.32 105.06C131.952 103.078 142.596 100.877 143.028 100.812C150.564 99.6984 147.923 104.924 149.373 103.812C155.066 99.4494 158.491 102.305 159.175 101.964C159.528 101.788 158.319 98.8053 161.64 97.6267C163.596 96.9329 164.766 96.6955 173.027 95.5667C182.331 94.2951 182.076 95.6962 182.48 103.79ZM179.488 103.677C179.189 96.8167 180.123 97.6467 174.411 98.1513C174.369 98.1546 164.418 99.3963 163.067 99.9009C162.134 100.25 162.357 100.826 162.849 102.65C164.279 107.954 165.518 113.642 167.629 113.279C176.328 111.782 175.661 111.704 177.482 111.164C179.063 110.694 178.92 109.468 179.488 103.677ZM146.148 111.481C146.086 109.232 146.451 109.98 145.518 103.898C145.371 102.935 144.526 102.658 130.977 106.544C129.933 106.843 129.509 106.948 129.979 108.443C133.182 118.617 133.776 119.223 137.85 118.437C146.739 116.717 146.356 119.008 146.148 111.481Z" fill="black"/>
<path d="M166.634 141.587C164.921 144.68 161.169 145.359 159.857 144.597C158.927 144.056 159.694 143.503 160.75 143.335C165.375 142.602 166.545 137.338 166.172 132.964C164.93 133.936 161.616 137.836 155.652 136.888C154.732 136.742 153.785 135.244 156.555 135.319C159.67 135.404 163.013 133.843 164.497 131.176C165.309 129.713 165.347 128.888 166.552 128.726C169.594 128.314 168.916 137.464 166.634 141.587Z" fill="black"/>
<path d="M154.734 108.938C156.12 109.189 154.512 111.345 154.32 117.64C154.278 119.062 154.503 120.487 154.959 121.838C156.725 127.072 163.346 121.232 165.376 121.542C169.182 122.123 155.018 132.15 152.226 122.387C151.232 118.913 153.074 108.639 154.735 108.94L154.734 108.938Z" fill="black"/>
<path d="M169.902 87.9443C170.55 89.0931 168.977 89.6907 168.028 89.4466C165.555 88.8092 163.283 88.3046 161.047 88.6233C160.076 88.7611 158.986 87.8198 159.766 86.8803C161.278 85.0559 168.75 85.9025 169.902 87.9443Z" fill="black"/>
<path d="M138.633 89.5111C140.415 89.4182 140.642 90.6217 139.581 91.3836C137.77 92.6834 136.631 92.4842 134.036 95.1435C133.382 95.8141 132.848 96.3769 131.998 95.9021C129.651 94.5907 134.676 89.717 138.633 89.5111Z" fill="black"/>
<path d="M171.415 105.993C171.396 103.941 169.161 103.194 167.993 104.811C167.239 105.847 167.887 108.048 169.585 108.048C170.638 108.048 171.561 107.122 171.415 105.993Z" fill="black"/>
<path d="M139.201 109.555C138.834 110.351 139.13 111.816 139.767 112.35C140.486 112.954 141.702 112.923 142.189 112.053C143.793 109.189 140.204 107.36 139.201 109.555Z" fill="black"/>
<path d="M260.843 194.397L259.521 196.013C267.213 202.062 270.265 205.879 271.56 205.21C273.119 204.406 266.647 198.923 260.843 194.397Z" fill="black"/>
<path d="M237.477 179.198C212.755 166.705 189.32 164.354 188.658 158.73C188.652 158.689 187.992 155.545 187.864 153.433C187.571 148.566 188.196 148.66 189.361 139.328C189.398 139.032 190.504 130.263 190.708 130.035C190.72 130.022 193.739 129.393 194.375 129.238C195.601 128.941 196.784 128.483 198.083 128.462C198.417 128.455 198.757 128.274 199.073 128.133C206.271 124.926 205.428 122.32 205.139 113.917C205.139 113.877 204.329 106.596 204.146 105.847C203.445 102.992 202.861 100.247 201.035 98.1401C198.64 95.3762 197.085 94.8267 195.532 94.5163C194.236 94.2573 190.47 93.746 189.192 94.0697C186.865 94.659 189.464 88.3776 182.335 79.5082C174.729 70.0446 164.131 69.6644 156.782 68.7863C156.339 68.7332 155.874 68.8842 155.416 68.9025C154.604 68.9373 154.175 68.4261 154.084 67.9828C152.576 60.5228 153.351 60.4481 153.078 57.2758C152.964 55.9561 151.576 56.0956 150.549 57.0069C147.208 59.97 147.641 59.7725 145.715 62.7107C144.684 64.2844 144.723 63.72 144.837 56.0126C144.86 54.4605 143.55 54.1434 142.689 54.824C141.633 55.659 140.5 56.416 139.497 57.3024C137.38 59.1716 134.646 62.2625 134.206 65.5974C133.949 67.5529 133.43 70.2355 134.462 73.0691C134.996 74.5365 134.677 73.3164 130.079 76.4804C127.165 78.4873 123.776 82.4381 123.317 83.059C113.465 96.3423 121.073 103.821 119.158 104.435C116.005 105.447 114.711 105.881 112.958 106.717C107.492 109.322 107.045 116.048 108.367 121.739C109.392 126.146 110.792 132.261 112.819 135.955C116.896 143.385 129.046 137.65 130.136 139.708C133.171 145.438 135.399 148.725 140.864 152.57C141.652 153.124 142.343 153.815 143.306 154.142C143.575 154.233 143.583 154.441 143.482 154.716C140.941 161.655 142.387 161.195 140.525 161.497C123.565 164.255 89.7051 174.278 78.031 181.107C70.7126 185.39 70.8404 185.488 70.9008 184.985C71.2718 181.95 73.6432 169.213 75.5903 163.77C75.6755 163.531 78.1446 156.75 78.9043 156.091C87.6142 148.529 86.8918 150.355 92.1901 137.64C94.7266 131.553 95.4189 130.751 95.2786 129.305C95.0834 127.29 92.6783 127.676 91.205 129.155C87.8112 132.562 87.2716 134.79 85.7842 137.011C85.4238 137.548 85.028 137.512 83.7731 137.683C83.0365 137.784 83.4216 137.117 83.237 136.021C81.7478 127.165 86.0025 124.159 88.5691 112.531C88.9472 110.822 86.4036 108.372 84.0553 111.598C78.1037 119.768 76.4761 128.714 75.2531 127.471C75.12 127.334 74.9815 127.142 74.9762 126.971C74.9158 124.785 75.6418 118.795 75.6507 118.754C75.9489 117.471 76.4264 108.309 75.3862 106.666C74.1277 104.674 71.9569 105.451 71.1919 107.488C68.1513 115.59 69.1773 113.776 67.2816 124.355C67.2106 124.752 67.0757 124.848 66.5432 124.906C66.1864 124.944 65.8953 124.898 65.7994 124.522C63.2505 114.665 64.7309 111.189 61.9406 109.249C60.7886 108.449 59.129 108.731 58.6888 110.065C57.1534 114.717 58.2433 117.833 58.9142 124.625C59.2106 127.633 59.2 127.607 58.8343 127.771C58.0019 128.145 58.0196 127.607 51.3864 117.823C49.7836 115.459 47.895 115.736 47.2649 117.052C46.0384 119.607 50.9977 129.048 52.636 131.159C53.5644 132.356 53.4206 133.083 53.8093 137.032C54.979 148.959 59.8195 152.151 59.3296 153.182C58.9444 153.992 58.8042 154.89 58.2291 155.636C52.7443 162.739 54.9382 161.272 43.6226 171.261C38.8035 175.516 28.0594 184.083 23.4053 191.796C22.816 192.77 23.6148 193.383 24.5893 192.689C24.6993 192.611 26.6376 190.81 27.4328 189.98C46.0117 170.594 52.5029 170.45 61.1738 153.918C61.9299 152.475 61.2554 151.195 60.2739 149.862C56.8552 145.221 56.6422 140.161 56.3351 138.174C55.1778 130.691 52.7638 128.707 48.8429 119.159C48.3423 117.939 49.1286 117.36 49.4499 117.711C50.7599 119.157 49.6327 117.607 53.6496 123.8C57.78 130.168 57.4818 130.203 60.2366 129.009C62.7074 127.939 58.5841 115.631 60.1638 110.617C60.3484 110.034 60.5153 109.992 61.0531 110.29C63.2594 111.506 62.7731 121.496 64.383 125.728C64.667 126.475 65.503 126.674 66.3231 126.609C66.8751 126.566 67.4111 126.342 67.9507 126.186C68.3483 126.071 68.627 125.824 68.7477 125.447C69.9299 121.752 71.38 107.019 73.4444 107.727C75.514 108.435 74.0266 115.545 73.2438 124.209C72.8444 128.634 72.6935 128.765 76.1353 129.326C77.2872 129.514 77.6848 126.632 84.6215 113.678C85.4008 112.222 86.5527 111.702 86.5403 113.332C86.5172 116.365 80.6189 126.255 80.7627 133.307C80.7662 133.52 80.7432 133.312 81.5526 137.703C81.7567 138.805 81.1248 137.6 76.2897 141.405C73.9609 143.237 74.055 144.851 75.0348 144.28C76.0891 143.667 77.1701 143.085 78.157 142.387C84.3642 138.003 86.0469 140.804 87.5521 137.977C89.8613 133.639 90.5199 132.862 92.9711 130.054C93.0563 129.956 93.2764 129.959 93.4326 129.916C93.7326 130.884 91.7641 134.389 90.4506 137.754C84.5541 152.854 78.0487 151.883 76.0536 157.286C73.9467 162.993 72.6669 165.82 69.4204 181.399C69.4098 181.445 63.247 212.483 63.2275 213.132C63.1902 214.315 64.1487 214.647 64.6989 213.434C65.4977 211.669 67.239 204.299 67.5727 202.884C69.4897 194.752 69.7435 188.276 70.8209 187.451C81.4496 179.311 113.03 170.395 126.327 166.569C127.55 166.217 126.806 166.879 128.966 169.859C140.704 186.05 151.443 190.67 162.961 195.851C163.973 196.306 165.675 196.98 167.388 195.979C170.75 194.013 178.253 187.573 184.037 183.172C198.685 172.032 198.425 166.738 199.89 167.193C213.169 171.31 224.385 175.156 235.589 180.848L237.475 179.196L237.477 179.198ZM196.226 96.8585C203.949 100.338 202.4 118.148 203.087 118.214C202.602 122.265 202.918 124.521 199.302 125.636C198.694 125.824 199.938 125.361 198.346 112.242C197.639 106.418 197.857 103.729 196.558 99.5029C195.994 97.6686 194.604 96.1281 196.226 96.8585ZM190.686 96.3655C194.107 96.4966 195.108 99.4763 196.769 120.338C196.851 121.372 196.72 122.434 196.824 122.434C196.824 126.355 196.844 126.139 191.217 127.439C190.905 127.51 190.825 127.388 190.836 127.152C192.39 93.9735 184.039 96.1115 190.686 96.3655ZM114.087 133.125C111.548 126.855 107.058 111.213 113.337 108.99C113.352 109.327 113.394 109 113.158 110.24C112.155 115.51 119.578 137.565 119.58 137.605C116.424 137.505 115.365 136.284 114.087 133.125ZM124.85 137.263C121.021 137.779 120.771 134.207 118.581 125.729C114.126 108.479 113.916 107.992 120.643 106.485C121.755 106.236 121.394 106.204 121.776 108.613C124.765 127.464 126.81 130.191 128.624 136.386C128.826 137.079 128.56 136.762 124.85 137.263ZM196.613 166.754C185.942 179.214 179.444 184.737 165.728 194.241C165.363 194.495 165.063 194.535 164.658 194.355C146.399 186.328 140.467 180.77 131.302 169.288C128.445 165.707 128.567 165.998 129.511 165.777C137.822 163.828 141.988 163.74 142.593 162.868C143.566 161.472 144.87 158.68 145.351 157.505C145.726 156.589 145.905 155.601 146.136 154.638C146.28 154.036 146.063 153.561 145.508 153.171C132.644 144.159 129.726 134.303 124.511 112.8C121.776 101.517 124.197 94.6026 129.147 88.9138C131.995 85.6436 134.038 83.8143 137.696 81.6563C140.12 80.2253 140.316 79.8186 140.978 79.9913C145.5 81.1699 151.299 79.2991 155.378 77.1245C156.946 76.2895 162.615 77.0863 164.353 77.5378C178.48 81.2064 184.403 90.3181 187.16 102.197C190.371 116.032 188.606 124.551 187.683 132.157C186.242 144.019 184.407 145.712 185.108 154.392C185.777 162.679 187.607 163.033 191.7 164.505C196.723 166.313 197.259 165.999 196.611 166.753L196.613 166.754Z" fill="black"/>
<path d="M91.6897 182.576C77.8642 186.117 74.3657 202.529 85.7026 210.358C94.9717 216.759 108.833 212.801 112.493 202.836C117.156 190.141 104.809 179.216 91.6897 182.576ZM98.0477 211.374C77.8731 212.874 74.5308 188.041 93.0121 184.028C99.4997 182.619 107.496 185.398 110.803 192.818C114.564 201.256 107.464 210.673 98.0477 211.374Z" fill="black"/>
<path d="M200.173 179.389C191.912 180.497 185.149 187.642 185.797 196.297C186.942 211.601 209.202 215.972 217.804 202.909C224.975 192.021 216.176 177.241 200.173 179.389ZM206.611 208.269C195.824 210.724 186.422 202.215 187.641 193.344C188.797 184.928 197.652 179.417 206.424 181.23C222.571 184.566 222.488 204.655 206.611 208.269Z" fill="black"/>
<path d="M259.422 184.767C249.762 170.131 224.243 178.809 227.654 196.238C231.142 214.055 261.031 213.281 261.901 192.639C261.637 190.338 261.566 188.017 259.422 184.767ZM246.961 206.777C237.697 208.263 228.936 200.962 229.11 193.703C229.476 178.391 250.49 174.034 258.065 186.095C263.747 195.142 257.361 205.11 246.961 206.777Z" fill="black"/>
<path d="M83.0095 198.49C83.1462 200.811 83.2704 202.423 85.6223 203.203C88.0967 204.025 91.6981 203.259 92.4383 201C93.0365 199.176 91.8952 198.733 92.8696 198.342C93.6435 198.032 94.6074 197.534 97.0924 197.481C100.151 197.806 100.523 197.65 100.529 198.733C100.538 200.462 100.209 201.347 101.581 202.147C102.836 202.879 105.13 203.11 107.51 202.109C109.908 201.101 111.189 196.344 107.361 193.678C98.9419 187.815 82.635 192.144 83.0113 198.489L83.0095 198.49ZM107.996 198.623C107.698 200.585 105.449 200.627 103.47 200.529C101.109 200.412 105.779 195.693 97.048 195.56C95.2304 195.532 91.8384 196.072 90.7911 197.64C90.3917 198.238 90.5 199.39 90.532 200.067C90.6047 201.656 87.802 201.719 86.1921 201.211C84.875 200.796 83.9449 198.749 85.7057 195.99C85.8424 195.776 88.1126 194.109 89.5309 193.744C92.7365 192.921 95.5801 192.426 100.667 192.823C104.345 193.11 108.511 195.23 107.996 198.623Z" fill="black"/>
<path d="M210.191 192.397C209.415 192.128 208.806 193.145 208.838 193.691C209.032 197.003 209.12 195.961 208.709 197.903C208.073 200.904 203.284 199.953 202.079 200.222C200.859 200.494 199.779 200.15 198.678 199.787C196.083 198.93 197.011 193.187 195.994 192.833C195.293 192.591 194.565 193.107 194.588 193.861C194.601 194.287 194.698 194.712 194.752 195.137C195.24 199.121 194.945 201.925 201.058 202.28C201.767 202.322 201.772 202.247 201.798 202.848C201.83 203.583 201.987 203.968 201.41 203.967C199.865 203.962 198.896 203.86 197.645 204.33C197.095 204.536 196.978 205.434 197.702 205.617C198.559 205.833 198.357 205.786 203.005 205.786C203.005 205.59 207.645 206.155 208.68 205.419C209.582 204.778 208.652 203.917 207.745 203.93C206.154 203.955 204.638 203.99 204.624 203.794C204.509 202.149 204.621 202.204 204.96 202.131C209.495 201.16 211.309 200.552 210.812 193.137C210.787 192.753 210.524 192.509 210.194 192.395L210.191 192.397Z" fill="black"/>
<path d="M200.914 198.69C209.484 201.226 206.557 191.696 207.198 191.695C207.198 187.86 207.3 187.613 206.741 185.873C206.065 183.77 202.685 183.172 200.93 184.039C198.615 185.181 198.711 186.63 198.663 192.687C198.64 195.66 198.557 197.993 200.916 198.691L200.914 198.69ZM202.187 185.423C205.147 184.988 205.075 186.568 205.492 190.753C205.133 196.753 205.495 197.093 203.099 197.156C199.695 197.246 201.106 195.624 200.545 190.066C200.369 188.33 200.344 185.694 202.187 185.423Z" fill="black"/>
<path d="M256.102 188.721C255.112 187.837 254.283 188.75 251.652 190.619C250.791 191.23 251.51 189.048 249.503 188.383C249.196 188.28 249.384 188.121 249.446 187.999C249.922 187.058 250.207 186.13 249.938 185.043C248.604 179.661 240.408 182.747 242.827 187.715C243.027 188.129 243.011 188.135 242.58 188.185C241.485 188.311 241.471 188.306 241.804 187.344C242.443 185.496 241.469 183.393 239.105 182.797C236.863 182.233 234.504 184.11 234.458 186.447C234.419 188.484 235.959 188.688 234.974 189.048C234.202 189.331 233.599 189.683 233.442 190.438C232.947 192.813 233.324 197.911 233.694 198.829C234.014 199.616 234.559 200.26 235.494 200.343C237.181 200.494 238.869 200.742 240.576 200.413C241.341 200.265 250.537 201.195 250.976 199.183C251.508 196.738 251.365 196.887 251.922 197.161C257.35 199.829 256.725 199.912 256.725 194.251C256.768 194.251 256.947 189.477 256.102 188.721ZM246.242 183.575C247.325 183.565 248.384 184.595 248.391 185.664C248.399 186.701 247.376 187.749 246.338 187.687C242.829 187.478 244.002 183.597 246.242 183.575ZM240.187 186.221C240.223 188.343 236.181 188.823 236.179 186.178C236.179 183.637 240.14 183.414 240.187 186.221ZM249.274 196.354C249.238 198.177 249.428 198.183 247.964 198.457C247.486 198.547 238.311 198.701 236.385 198.552C235.235 198.462 235.246 196.837 235.157 194.751C235.001 191.069 234.958 190.74 236.149 190.367C237.837 189.837 243.65 189.923 243.65 189.963C249.327 189.963 248.862 189.767 249.178 190.828C249.694 192.566 249.343 192.822 249.274 196.352V196.354ZM255.023 194.77C255.023 197.237 255.474 197.118 252.222 195.464C251.409 195.051 251.29 194.686 251.317 193.791C251.34 193.046 251.613 192.566 252.289 192.181C253.873 191.28 254.716 190.049 254.799 191.211C255.055 194.767 255.092 194.766 255.023 194.77Z" fill="black"/>
<path d="M309.397 9.57083C296.949 0.844206 274.019 -1.45821 258.873 1.56133C218.407 9.63225 213.864 54.4008 244.623 68.9822C247.9 70.536 248.054 70.3202 247.84 70.8547C246.776 73.5124 241.631 84.4103 239.504 86.9218C235.708 91.4072 255.153 88.3395 266.972 75.2205C268.126 73.939 274.825 74.857 277.131 75.0429C289.16 74.2677 288.927 74.3175 294.149 72.9762C325.505 64.9252 335.661 27.9819 309.395 9.56917L309.397 9.57083ZM294.196 69.5632C286.537 71.4573 289.497 71.1817 280.438 72.0815C268.424 73.275 268.339 71.2315 265.987 73.3082C260.481 78.167 258.619 79.5083 251.17 83.23C248.706 84.4617 244.258 86.0288 242.859 86.0421C243.317 84.9747 244.343 84.641 248.406 75.5907C251.755 68.1306 250.772 69.5848 245.743 66.5038C239.378 62.6028 234.121 59.0654 230.324 51.0659C222.968 35.5731 228.302 7.00613 268.245 3.99157C270.404 3.82889 272.567 3.75087 274.729 3.63467C274.745 4.05299 279.823 3.41555 285.94 4.63399C289.279 5.29799 287.63 4.59083 291.347 5.54367C295.969 6.72891 302.33 8.11169 308.763 13.1581C331.579 31.0612 321.69 62.7655 294.197 69.5649L294.196 69.5632Z" fill="black"/>
<path d="M273.521 35.5827C270.487 35.5711 268.622 38.2985 268.647 40.322C268.716 46.2798 278.276 46.5935 278.448 40.0199C278.517 37.3672 276.311 35.5927 273.523 35.5827H273.521Z" fill="black"/>
<path d="M254.627 35.3242C251.925 35.1898 249.636 37.8922 249.602 40.0602C249.565 42.4323 251.826 44.6733 254.368 44.5671C260.273 44.9423 261.784 35.6811 254.629 35.3242H254.627Z" fill="black"/>
<path d="M291.821 35.1052C289.206 34.8828 286.993 37.6417 286.995 39.8429C286.998 42.2416 289.304 44.3315 291.826 44.3381C298.032 44.3514 298.907 34.9957 291.819 35.1069L291.821 35.1052Z" fill="black"/>
</svg>
