<svg width="58" height="57" viewBox="0 0 58 57" fill="none" xmlns="http://www.w3.org/2000/svg">
<path d="M11.5748 42.7375C13.9832 40.9229 16.6748 39.4922 19.6498 38.4453C22.6248 37.3984 25.7415 36.875 28.9998 36.875C32.2582 36.875 35.3748 37.3984 38.3498 38.4453C41.3248 39.4922 44.0165 40.9229 46.4248 42.7375C48.0776 40.8298 49.3644 38.6663 50.2853 36.2469C51.2061 33.8274 51.6665 31.2451 51.6665 28.5C51.6665 22.3118 49.4589 17.0425 45.0436 12.6922C40.6283 8.34182 35.2804 6.16665 28.9998 6.16665C22.7193 6.16665 17.3714 8.34182 12.9561 12.6922C8.54081 17.0425 6.33317 22.3118 6.33317 28.5C6.33317 31.2451 6.79359 33.8274 7.71442 36.2469C8.63525 38.6663 9.92206 40.8298 11.5748 42.7375ZM28.9998 31.2916C26.2137 31.2916 23.8644 30.3495 21.9519 28.4651C20.0394 26.5807 19.0832 24.266 19.0832 21.5208C19.0832 18.7757 20.0394 16.4609 21.9519 14.5765C23.8644 12.6922 26.2137 11.75 28.9998 11.75C31.7859 11.75 34.1353 12.6922 36.0478 14.5765C37.9603 16.4609 38.9165 18.7757 38.9165 21.5208C38.9165 24.266 37.9603 26.5807 36.0478 28.4651C34.1353 30.3495 31.7859 31.2916 28.9998 31.2916ZM28.9998 56.4166C25.0804 56.4166 21.3971 55.6838 17.9498 54.2182C14.5026 52.7526 11.504 50.7635 8.954 48.251C6.404 45.7385 4.38525 42.784 2.89775 39.3875C1.41025 35.991 0.666504 32.3618 0.666504 28.5C0.666504 24.6382 1.41025 21.009 2.89775 17.6125C4.38525 14.216 6.404 11.2614 8.954 8.74894C11.504 6.23644 14.5026 4.24738 17.9498 2.78175C21.3971 1.31613 25.0804 0.583313 28.9998 0.583313C32.9193 0.583313 36.6026 1.31613 40.0498 2.78175C43.4971 4.24738 46.4957 6.23644 49.0457 8.74894C51.5957 11.2614 53.6144 14.216 55.1019 17.6125C56.5894 21.009 57.3332 24.6382 57.3332 28.5C57.3332 32.3618 56.5894 35.991 55.1019 39.3875C53.6144 42.784 51.5957 45.7385 49.0457 48.251C46.4957 50.7635 43.4971 52.7526 40.0498 54.2182C36.6026 55.6838 32.9193 56.4166 28.9998 56.4166Z" fill="#1D1B20"/>
</svg>
